<svg class="svg-icon" style="width: 1em; height: 1em;vertical-align: middle;fill: currentColor;overflow: hidden;" viewBox="0 0 1024 1024" version="1.1" xmlns="http://www.w3.org/2000/svg"><path d="M880.448 256 704 256l0-79.915C704 149.57 682.84 128 656.325 128L368.167 128C341.652 128 320 149.57 320 176.085L320 256 144.044 256C100.02 256 64 292.148 64 336.173L64 526l0 64 0 226.437C64 860.461 100.02 896 144.044 896l736.404 0C924.473 896 960 860.461 960 816.437L960 590l0-64L960 336.173C960 292.148 924.473 256 880.448 256zM896 816.437c0 8.696-6.855 15.563-15.552 15.563L144.044 832c-8.697 0-16.044-6.867-16.044-15.563L128 590l208 0 0 16.044C336 658.988 379.258 702 432.202 702L592.29 702c52.944 0 95.71-43.012 95.71-95.956L688 590l208 0L896 816.437zM400 590l224 0 0 16.044c0 17.51-14.2 31.956-31.71 31.956L432.202 638C414.692 638 400 623.554 400 606.044L400 590zM624.308 526 400.185 526 128 526 128 336.173c0-8.697 7.347-16.173 16.044-16.173l176.097 0L384 320l0-63.871L384 192l256 0 0 64.129L640 320l64.352 0 176.097 0c8.696 0 15.552 7.476 15.552 16.173L896.001 526 624.308 526z"  /><path d="M384 256l256 0 0 64-256 0 0-64Z"  /></svg>